<svg width="218" height="256" viewBox="0 0 218 256" fill="none" xmlns="http://www.w3.org/2000/svg">
<path d="M199.666 48.55C227.173 90.1369 224.307 148.024 186.574 185.018C165.762 205.422 145.206 226.087 124.547 246.646C113.429 257.711 104.226 258.157 93.0391 247.24C70.152 224.904 46.9122 202.857 25.517 179.102C8.48082 160.187 0.162949 137.181 0.00283838 111.484C-0.277496 66.4967 20.2126 33.5238 59.2805 12.5662C88.799 -3.26879 119.67 -3.8312 150.752 9.14698C170.809 17.5216 187.419 29.996 199.666 48.55ZM100.008 89.1961C100.017 80.3632 99.9276 71.5287 100.073 62.6981C100.163 57.237 102.862 54.0621 107.373 53.5141C114.33 52.669 117.668 55.5726 117.698 62.7604C117.759 77.593 117.727 92.4261 117.704 107.259C117.698 110.929 118.498 113.926 122.866 114.421C127.853 114.986 129.988 112.989 130.078 107.439C130.324 92.2797 129.875 77.1095 130.933 61.9634C131.329 56.2918 134.237 53.2734 139.654 53.2169C145.358 53.1574 148.591 56.237 148.696 62.1428C149.008 79.6282 149.218 97.1154 149.492 114.602C149.742 130.603 144.462 143.882 131 153.419C127.092 156.188 124.992 160.458 123.753 165.09C121.954 171.819 122.935 178.684 122.799 185.485C122.677 191.551 123.725 192.221 129.564 190.709C181.693 177.209 208.089 119.417 183.705 71.5136C163.107 31.0484 116.812 14.8563 76.9015 31.4479C26.4683 52.4136 10.1453 112.824 39.9067 156.448C51.9133 174.047 67.9525 185.997 88.9834 190.874C92.4835 191.685 94.0824 191.116 94.0196 187.319C93.9287 181.821 94.3265 176.292 93.8837 170.827C93.2081 162.491 89.5174 155.878 82.5631 150.659C72.6938 143.253 67.5864 132.659 67.1631 120.51C66.4729 100.698 67.1385 80.864 68.0084 61.0502C68.2082 56.5004 70.6163 53.9943 74.8115 53.0259C80.7369 51.6581 85.6412 55.9996 85.6835 62.7825C85.7697 76.615 85.7411 90.4483 85.7072 104.281C85.7009 106.826 85.9651 109.227 87.2911 111.486C89.175 114.695 92.1953 114.766 95.1931 114.216C98.0901 113.684 98.9695 111.405 99.071 108.6C99.2935 102.451 99.6849 96.3092 100.008 89.1961Z" fill="#FB4834"/>
</svg>
